HIERARCHY
ROOT Hips
{
  OFFSET 3.2188 103.674 -132.429
  CHANNELS 6 Xposition Yposition Zposition Zrotation Xrotation Yrotation
  JOINT RightUpLeg
  {
    OFFSET -8.9458 -8.66707 0.101652
    CHANNELS 3 Zrotation Xrotation Yrotation
    JOINT RightLeg
    {
      OFFSET 0 -44.4227 1.3727
      CHANNELS 3 Zrotation Xrotation Yrotation
      JOINT RightFoot
      {
        OFFSET 0.253549 -42.0924 -1.46059
        CHANNELS 3 Zrotation Xrotation Yrotation
        JOINT RightToes
        {
          OFFSET 0.04 -4.41509 8.4991
          CHANNELS 3 Zrotation Xrotation Yrotation
          End Site
          {
            OFFSET -0.08 -0.137448 9.77979
          }
        }
      }
    }
  }
  JOINT Spine
  {
    OFFSET 0 11.8905 0
    CHANNELS 3 Zrotation Xrotation Yrotation
    JOINT Spine1
    {
      OFFSET 0 25.6574 0.127663
      CHANNELS 3 Zrotation Xrotation Yrotation
      JOINT HEad
      {
        OFFSET 0 8.73416 0.011341
        CHANNELS 3 Zrotation Xrotation Yrotation
        End Site
        {
          OFFSET -0.29 12.7742 2.51395
        }
      }
      JOINT LeftShoulder1
      {
        OFFSET 8.99 -0.362252 -0.22
        CHANNELS 3 Zrotation Xrotation Yrotation
        JOINT LeftArm
        {
          OFFSET 10.2827 -0.00338 0.322123
          CHANNELS 3 Zrotation Xrotation Yrotation
          JOINT LeftForeArm
          {
            OFFSET 32.7669 0.099144 -1.42434
            CHANNELS 3 Zrotation Xrotation Yrotation
            JOINT LeftHand
            {
              OFFSET 27.5643 0.085362 1.02216
              CHANNELS 3 Zrotation Xrotation Yrotation
              End Site
              {
                OFFSET 16.7443 -0.6 1.50291
              }
            }
          }
        }
      }
      JOINT RightShoulder
      {
        OFFSET -8.99 -0.362252 -0.22
        CHANNELS 3 Zrotation Xrotation Yrotation
        JOINT RightArm
        {
          OFFSET -10.2827 -0.00338 0.322123
          CHANNELS 3 Zrotation Xrotation Yrotation
          JOINT RightForeArm
          {
            OFFSET -32.8971 0.099144 -1.42434
            CHANNELS 3 Zrotation Xrotation Yrotation
            JOINT RightHand
            {
              OFFSET -27.4921 0.085362 1.02216
              CHANNELS 3 Zrotation Xrotation Yrotation
              End Site
              {
                OFFSET -16.6312 -0.6 1.50291
              }
            }
          }
        }
      }
    }
  }
  JOINT LeftUpLeg
  {
    OFFSET 8.9458 -8.66707 0.101652
    CHANNELS 3 Zrotation Xrotation Yrotation
    JOINT LeftLeg
    {
      OFFSET 0 -44.4227 1.3727
      CHANNELS 3 Zrotation Xrotation Yrotation
      JOINT LeftFoot
      {
        OFFSET -0.253549 -42.0924 -1.46059
        CHANNELS 3 Zrotation Xrotation Yrotation
        JOINT LeftToes
        {
          OFFSET -0.04 -4.41509 8.4991
          CHANNELS 3 Zrotation Xrotation Yrotation
          End Site
          {
            OFFSET 0.08 -0.047448 9.77979
          }
        }
      }
    }
  }
}
MOTION
Frames:	10
Frame Time:	0.0166667
3.79973 101.954 19.6715 0.49256 -6.96162 5.03837 -0.82984 -10.1367 5.80026 11.3879 23.0633 -30.3053 25.2885 -3.34012 -0.300383 -1.54751 -7.27655 5.60236 -2.30846 2.98101 0.121926 -0.161996 25.2613 -0.390495 -0.0978133 -9.55961 7.13299 1.19271e-015 9.54166e-015 1.59028e-015 -91.8501 -31.3337 -25.0023 -18.1418 16.1005 -25.5992 0.368473 9.90896 -0.00117926 -1.93053 0.217871 -0.278502 82.1216 -13.1873 5.13916 26.7282 15.9738 28.5928 -0.369625 9.91382 0.00119886 10.2078 -11.0686 0.235494 -28.5253 61.7513 50.8484 -2.34802 -5.56246 0.0260965 -5.00994 36.931 -8.72 
3.57904 101.974 20.5897 0.558594 -6.74403 5.4245 -0.785331 -9.83537 5.49875 11.5079 23.2648 -29.9885 25.3224 -3.97937 -0.158474 -1.02732 -8.0072 4.79854 -2.15527 3.01476 0.110908 -0.0171727 25.3501 -0.41157 -0.242695 -9.42146 6.95327 1.98785e-016 -3.18055e-015 7.95139e-016 -92.3974 -31.3142 -25.1711 -18.2149 15.9939 -24.9396 0.368473 9.90896 -0.00117926 -2.35613 0.212792 -0.171877 82.427 -13.1756 6.13327 26.6649 15.9996 28.3823 -0.369625 9.91382 0.00119886 10.0303 -13.8593 0.0832329 -30.3307 62.9912 51.6741 -2.1728 -5.62608 0.0249743 -5.04322 37.3176 -8.94635 
3.38997 101.99 21.4839 0.630994 -6.5186 5.77234 -0.735331 -9.55033 5.23481 11.575 23.4548 -29.6989 25.3555 -4.58671 -0.0236051 -0.572018 -8.69446 4.08698 -1.93452 3.0518 0.0677905 0.0425466 25.4321 -0.411872 -0.39539 -9.22074 6.85257 -3.97569e-016 -3.18055e-015 -2.38542e-015 -92.9065 -31.3623 -25.271 -18.3054 15.8943 -24.3331 0.368473 9.90896 -0.00117926 -2.83302 0.206189 -0.0467987 82.8271 -13.1861 7.21702 26.6072 16.0016 28.02 -0.369625 9.91382 0.00119886 9.68207 -16.5375 -0.106744 -31.5016 63.6879 51.7981 -2.08621 -5.78285 0.0203083 -5.05553 37.3944 -9.06644 
3.23488 102.04 22.3684 0.734941 -6.38806 6.0605 -0.69897 -9.08946 5.23079 11.6234 23.4453 -29.736 25.3832 -5.07543 0.0844676 -0.387261 -9.36408 3.91493 -1.62093 3.0848 -0.0104435 -0.00390252 25.5978 -0.387094 -0.47932 -9.04908 6.84628 -7.95139e-016 -3.18055e-015 -7.95139e-016 -93.4316 -31.5824 -25.2581 -18.3573 15.8209 -23.8809 0.368473 9.90896 -0.00117926 -3.44871 0.196529 0.124081 83.4121 -13.1293 8.29396 26.5543 15.9964 27.6293 -0.369625 9.91382 0.00119886 9.17523 -18.9103 -0.252225 -31.7748 63.692 51.8793 -2.05369 -5.62748 0.02146 -4.94726 35.5721 -8.69835 
3.09764 102.092 23.2368 0.838845 -6.28918 6.29507 -0.660484 -8.59035 5.27631 11.6498 23.3901 -29.8433 25.3978 -5.47129 0.171755 -0.309101 -10.1365 3.9982 -1.27774 3.11194 -0.10056 -0.0952889 25.7961 -0.352069 -0.553385 -8.91006 6.8764 3.97569e-016 0 7.95139e-016 -93.9118 -31.8691 -25.1659 -18.423 15.7624 -23.5212 0.368473 9.90896 -0.00117926 -4.0915 0.185045 0.301334 84.0491 -13.0675 9.3932 26.49 15.9886 27.2274 -0.369625 9.91382 0.00119886 8.58725 -21.02 -0.524355 -31.4308 63.0314 51.63 -2.00309 -5.74651 0.0205789 -4.81688 33.9597 -8.31495 
2.9569 102.122 24.0866 0.911648 -6.19544 6.47925 -0.597388 -8.13771 5.22463 11.6623 23.3923 -29.9244 25.373 -5.67271 0.215193 -0.350956 -11.3848 4.48583 -0.952385 3.12711 -0.184196 -0.191132 26.0244 -0.317117 -0.613962 -8.85293 6.87199 0 0 -1.59028e-015 -94.2906 -32.1395 -25.0361 -18.5426 15.7102 -23.2121 0.368473 9.90896 -0.00117926 -4.64923 0.172673 0.435548 84.6355 -13.0347 10.5546 26.3932 15.983 26.8406 -0.369625 9.91382 0.00119886 7.97131 -22.8305 -1.15125 -30.8326 61.6618 51.1639 -1.7952 -6.95027 0.00900491 -4.87924 35.1467 -8.30999 
2.83076 102.144 24.9207 0.973512 -6.09976 6.6001 -0.532061 -7.69607 5.10907 11.6575 23.4164 -29.7974 25.3609 -5.97503 0.282213 -0.207807 -12.3752 4.52602 -0.667395 3.13588 -0.249735 -0.249502 26.2273 -0.29178 -0.7691 -8.83186 6.88747 -4.41391e-032 3.18055e-015 7.95139e-016 -94.608 -32.4284 -24.7973 -18.695 15.6724 -22.9968 0.368473 9.90896 -0.00117926 -5.21088 0.158781 0.584029 85.1824 -13.0245 11.652 26.2791 15.998 26.5645 -0.369625 9.91382 0.00119886 7.32746 -24.3776 -1.90976 -29.7713 59.6481 50.3229 -1.5976 -8.16214 -0.00157083 -4.93828 36.1285 -8.3234 
2.73145 102.174 25.7365 1.0427 -5.97639 6.6454 -0.485391 -7.24888 4.87893 11.6183 23.4544 -29.0518 25.4553 -6.80727 0.472323 0.606431 -12.0754 2.65122 -0.486144 3.14256 -0.273693 -0.204633 26.3341 -0.292364 -1.18783 -8.81396 6.94949 -0 -6.36111e-015 -0 -94.8802 -32.7391 -24.3751 -18.8706 15.6578 -22.9258 0.368473 9.90896 -0.00117926 -5.82909 0.143893 0.802492 85.639 -13.0377 12.5301 26.1547 16.0689 26.5822 -0.369625 9.91382 0.00119886 6.69661 -25.7084 -2.65552 -28.1784 56.9849 48.9761 -1.5111 -8.29521 0.00387119 -4.77644 33.794 -7.76711 
2.65531 102.187 26.5485 1.09358 -5.85473 6.61618 -0.437352 -6.82374 4.63968 11.5934 23.5156 -28.2749 25.5205 -7.66654 0.668148 1.42763 -11.743 0.826283 -0.333488 3.14483 -0.273317 -0.0864026 26.3873 -0.309381 -1.68384 -8.8096 7.07035 0 0 -0 -95.1152 -33.0817 -23.8161 -19.0753 15.6564 -22.9354 0.368473 9.90896 -0.00117926 -6.5005 0.125467 1.04631 86.0893 -13.0951 13.3177 26.0242 16.1511 26.6574 -0.369625 9.91382 0.00119886 6.11526 -26.7637 -3.33906 -26.3498 53.7991 47.5707 -1.5928 -8.19063 0.00713302 -4.59013 31.0427 -7.7664 
2.6052 102.163 27.3675 1.10306 -5.75261 6.50582 -0.376576 -6.4503 4.48215 11.6151 23.595 -28.046 25.3994 -8.07057 0.755269 1.49869 -12.6651 0.936673 -0.14961 3.14248 -0.256732 0.112373 26.403 -0.341651 -2.06995 -8.81947 7.29637 3.97569e-016 9.54166e-015 -0 -95.3513 -33.4814 -23.119 -19.3134 15.6678 -23.0132 0.368473 9.90896 -0.00117926 -7.25818 0.100277 1.2854 86.6193 -13.2478 14.1001 25.8901 16.2078 26.5857 -0.369625 9.91382 0.00119886 5.66445 -27.4859 -3.83582 -24.426 50.1544 46.5609 -2.05726 -8.47923 -0.0129158 -4.82807 30.5233 -9.84623 
